<svg xmlns="http://www.w3.org/2000/svg" width="30" height="27.857" viewBox="0 0 30 27.857">
  <g id="feed" transform="translate(-22 -25)">
    <rect id="XMLID_45_" width="29" height="4" transform="translate(23 29.917)" fill="#e8e8e8"/>
    <rect id="XMLID_44_" width="29" height="4" transform="translate(23 36.929)" fill="#e8e8e8"/>
    <rect id="XMLID_43_" width="29" height="4" transform="translate(23 43.94)" fill="#e8e8e8"/>
    <g id="XMLID_39_" transform="translate(22 25)">
      <path id="XMLID_40_" d="M38.8,27.514c3.08,0,5.6,1.131,5.6,2.514v2.514c0,1.383-2.52,2.514-5.6,2.514H33.2c-3.08,0-5.6-1.131-5.6-2.514V30.029c0-1.383,2.52-2.514,5.6-2.514h5.6M38.8,25H33.2C27.04,25,22,27.263,22,30.029v2.514c0,2.766,5.04,5.029,11.2,5.029h5.6c6.16,0,11.2-2.263,11.2-5.029V30.029C50,27.263,44.96,25,38.8,25Z" transform="translate(-22 -25)" fill="#e8e8e8"/>
    </g>
    <g id="XMLID_35_" transform="translate(22 27.071)">
      <path id="XMLID_36_" d="M38.8,58.743c3.08,0,5.6,2.134,5.6,4.743v4.743c0,2.609-2.52,4.743-5.6,4.743H33.2c-3.08,0-5.6-2.134-5.6-4.743V63.486c0-2.609,2.52-4.743,5.6-4.743h5.6M38.8,54H33.2C27.04,54,22,58.269,22,63.486v4.743c0,5.217,5.04,9.486,11.2,9.486h5.6c6.16,0,11.2-4.269,11.2-9.486V63.486C50,58.269,44.96,54,38.8,54Z" transform="translate(-22 -54)" fill="#e8e8e8"/>
    </g>
    <g id="XMLID_31_" transform="translate(22 40.286)">
      <path id="XMLID_32_" d="M38.8,85.514c3.08,0,5.6,1.131,5.6,2.514v2.514c0,1.383-2.52,2.514-5.6,2.514H33.2c-3.08,0-5.6-1.131-5.6-2.514V88.029c0-1.383,2.52-2.514,5.6-2.514h5.6M38.8,83H33.2C27.04,83,22,85.263,22,88.029v2.514c0,2.766,5.04,5.029,11.2,5.029h5.6c6.16,0,11.2-2.263,11.2-5.029V88.029C50,85.263,44.96,83,38.8,83Z" transform="translate(-22 -83)" fill="#e8e8e8"/>
    </g>
  </g>
</svg>
