<svg xmlns="http://www.w3.org/2000/svg" width="30" height="29.999" viewBox="0 0 30 29.999">
  <g id="Icons" transform="translate(-8.306 -8.307)">
    <g id="Group_16" data-name="Group 16" transform="translate(8.306 8.307)">
      <circle id="Ellipse_1" data-name="Ellipse 1" cx="4.116" cy="4.116" r="4.116" transform="translate(10.884 8.081)" fill="#e8e8e8"/>
      <path id="Path_3" data-name="Path 3" d="M23.306,8.307a15,15,0,1,0,15,15A15.017,15.017,0,0,0,23.306,8.307Zm7.322,22.453a.334.334,0,0,1-.335-.334A3.826,3.826,0,0,0,26.472,26.6H20.141a3.826,3.826,0,0,0-3.822,3.822.335.335,0,0,1-.669,0,4.5,4.5,0,0,1,4.491-4.491h6.331a4.5,4.5,0,0,1,4.491,4.491A.334.334,0,0,1,30.628,30.759ZM23.306,15.854a4.6,4.6,0,1,1-4.6,4.6A4.608,4.608,0,0,1,23.306,15.854ZM20.54,11.486a.335.335,0,0,1,.271-.388,12.607,12.607,0,0,1,1.584-.181.345.345,0,0,1,.35.317.335.335,0,0,1-.318.351,11.962,11.962,0,0,0-1.5.172.32.32,0,0,1-.059,0A.335.335,0,0,1,20.54,11.486Zm-6.03,2.735a13.69,13.69,0,0,1,5.007-2.826.335.335,0,1,1,.182.644,13,13,0,0,0-4.752,2.69.335.335,0,0,1-.437-.508Z" transform="translate(-8.306 -8.307)" fill="#e8e8e8"/>
    </g>
  </g>
</svg>
