<svg id="Layer_x0020_1" xmlns="http://www.w3.org/2000/svg" width="30" height="25.314" viewBox="0 0 30 25.314">
  <path id="Path_4" data-name="Path 4" d="M.468,0H29.532A.469.469,0,0,1,30,.468V24.846a.469.469,0,0,1-.468.468H.468A.469.469,0,0,1,0,24.846V.47A.469.469,0,0,1,.468,0Zm19.21,6.158a3.328,3.328,0,0,1,.007,6.039V24.378h9.377V4.689H.936V24.378h7.5V19.69a1.879,1.879,0,0,1,1.875-1.875V11.722A.468.468,0,0,1,9.9,11.48L9.025,10.1a.468.468,0,0,1-.046-.406l.9-3.251a.467.467,0,0,1,.45-.343v0h.906a.469.469,0,0,1,.461.388l.894,3.238a.47.47,0,0,1-.057.377h0l-.906,1.406a.466.466,0,0,1-.377.214v6.1a1.87,1.87,0,0,1,1.322.55l0,0,0,0a1.868,1.868,0,0,1,.55,1.324v4.688h3.749V12.2a3.331,3.331,0,0,1,.054-6.062.465.465,0,0,1,.617.236.485.485,0,0,1,.041.191h0V9.248h1.387V6.564A.469.469,0,0,1,19.44,6.1a.462.462,0,0,1,.236.064Zm.611,1.719a2.4,2.4,0,0,0-.377-.45V9.718a.469.469,0,0,1-.468.468H17.119a.469.469,0,0,1-.468-.468V7.429a2.395,2.395,0,0,0,.81,4,.469.469,0,0,1,.354.454V24.378h.936V11.884h0a.467.467,0,0,1,.315-.441,2.4,2.4,0,0,0,1.224-3.565Zm-9.411-.845h-.195L9.929,9.768l.643,1.015h.409l.654-1.015-.754-2.734Zm.372,11.72h-.938a.94.94,0,0,0-.936.936v4.688h2.811V19.688a.934.934,0,0,0-.275-.661l0,0a.945.945,0,0,0-.663-.275Zm9.845.468a.468.468,0,0,1,0-.936h4.65a.468.468,0,1,1,0,.936Zm1.875-2.343a.468.468,0,0,1,0-.936h4.65a.468.468,0,0,1,0,.936ZM2.345,12.658a.468.468,0,0,1,0-.936h4.65a.468.468,0,0,1,0,.936ZM4.219,15a.468.468,0,0,1,0-.936h4.65a.468.468,0,0,1,0,.936ZM7.032,1.876h.936v.938H7.032Zm-2.343,0h.936v.938H4.689Zm-2.343,0h.936v.938H2.346ZM.94,3.751H29.065V.94H.94Z" fill="#e8e8e8"/>
</svg>
